<?xml version="1.0" encoding="utf-8"?>
<!-- Generator: Adobe Illustrator 22.1.0, SVG Export Plug-In . SVG Version: 6.00 Build 0)  -->
<svg version="1.1" id="Modo_de_aislamiento" xmlns="http://www.w3.org/2000/svg" xmlns:xlink="http://www.w3.org/1999/xlink"
	 x="0px" y="0px" viewBox="112 11.1 70.4 67.1" style="enable-background:new 112 11.1 70.4 67.1;" xml:space="preserve">
<style type="text/css">
	.st0{fill:#FFFFFF;}
</style>
<g>
	<path class="st0" d="M112,35.1c0-2.8,3.7-4.6,6.3-4.6c2.6,0,4.1,1.1,4.7,3.6c0.6,1.9,5.4,21.7,7.8,29.9c3.4-8.9,6.8-18.7,10.7-29.5
		c0.9-2.1,3.1-3.4,5.6-3.4c3.3,0,4.9,1.5,6,4.4l10.6,28.2l5.7-21.6c0.7-3.1,1.4-5.7,2.1-7.8c0.7-2.1,2-3.3,4.7-3.3
		c2.7,0,6.1,1.8,6.2,4.6c0,0.5-0.1,1.3-0.3,1.9c-1.2,3.8-5.9,19.6-8.4,27.2c-1.4,4.4-2.2,7-3.1,9c-1,2.8-2.5,4.4-6.5,4.4
		c-3.6,0-5.3-1.6-6.4-4.7c-3-6.7-7.7-20.7-10.5-27.9l-9.5,24.9c-1.8,5.2-3.4,7.8-7.9,7.8s-5.8-2.2-6.9-5.6
		c-5.6-18.2-9-30.5-10.7-36.4C112.1,36,112,35.3,112,35.1"/>
	<g>
		<path class="st0" d="M159.8,11.4c0,0-6.5-1.6-11,3c-4.5,4.5-3,11-3,11s5.9,2.2,11-3C162,17.2,159.8,11.4,159.8,11.4"/>
		<path class="st0" d="M134.4,17.3c0,0-1,4,1.8,6.7c2.8,2.8,6.7,1.8,6.7,1.8s1.4-3.6-1.8-6.7C137.9,15.9,134.4,17.3,134.4,17.3"/>
	</g>
</g>
</svg>
