<?xml version="1.0" encoding="utf-8"?>
<!-- Generator: Adobe Illustrator 19.0.0, SVG Export Plug-In . SVG Version: 6.00 Build 0)  -->
<svg version="1.1" id="Capa_1" xmlns="http://www.w3.org/2000/svg" xmlns:xlink="http://www.w3.org/1999/xlink" x="0px" y="0px"
	 viewBox="0 0 475.4 144.2" style="enable-background:new 0 0 475.4 144.2;" xml:space="preserve">
<style type="text/css">
	.st0{fill:#FFFFFF;}
	.st1{fill:#6CAEA4;}
	.st2{fill:#B13A4B;}
</style>
<g>
	<path id="XMLID_34_" class="st0" d="M404.3,0.4c0,0-10.5-2.6-17.8,4.8c-7.3,7.3-4.8,17.8-4.8,17.8s9.5,3.6,17.8-4.8
		C407.9,9.9,404.3,0.4,404.3,0.4"/>
	<path id="XMLID_33_" class="st0" d="M363.3,10c0,0-1.6,6.4,2.9,10.9c4.5,4.5,10.9,2.9,10.9,2.9s2.2-5.8-2.9-10.9
		C369.1,7.8,363.3,10,363.3,10"/>
	<path id="XMLID_32_" class="st0" d="M0,38.7c0-4.6,5.9-7.4,10.2-7.4c4.3,0,6.6,1.8,7.6,5.8c1,3.1,8.7,35,12.6,48.3
		c5.4-14.3,11-30.2,17.2-47.6c1.5-3.5,4.9-5.4,9-5.4c5.3,0,7.9,2.5,9.7,7.1l17.1,45.5l9.2-34.8c1.2-4.9,2.3-9.2,3.5-12.6
		c1.2-3.5,3.3-5.3,7.6-5.3c4.4,0,9.9,3,10,7.4c0,0.8-0.2,2.1-0.5,3.1c-2,6.1-9.5,31.7-13.6,43.9c-2.3,7.1-3.6,11.3-4.9,14.5
		c-1.6,4.6-4.1,7.1-10.5,7.1c-5.8,0-8.5-2.6-10.4-7.6c-4.8-10.8-12.5-33.4-16.9-45L41.6,95.7c-3,8.4-5.4,12.6-12.8,12.6
		c-7.4,0-9.4-3.6-11.2-9C8.5,69.9,3.1,50.1,0.3,40.5C0.2,40.2,0,39.1,0,38.7"/>
	<path class="st0" d="M152.1,92.6c6.1,0,11.8-2,15.9-4.4c2-1.1,3.9-2.1,6.4-2.1c3.9,0,7.6,4.1,7.6,8.5c0,3.1-2,5.6-4.9,7.6
		c-6.1,3.9-13.8,6.6-26.4,6.6c-20.4,0-36.5-16.3-36.8-36.1c0-23,16.4-41.6,37.8-41.6c19.2,0,33.2,15.1,33.2,30.2
		c0,8.5-1.3,12.8-12.8,13c-9.2,0.3-20.4,0.2-39.9,0.3C132.7,84.4,141,92.6,152.1,92.6 M132.3,63c8.5,0,26.6-0.2,33.5-0.7
		c1.1-0.2,2-0.7,2-1.5c0-9-7.6-15.3-15.8-15.3C141,45.6,133.2,54.3,132.3,63"/>
	<path class="st0" d="M309.8,92.6c6.1,0,11.8-2,15.9-4.4c2-1.1,3.9-2.1,6.4-2.1c3.9,0,7.6,4.1,7.6,8.5c0,3.1-2,5.6-4.9,7.6
		c-6.1,3.9-13.8,6.6-26.4,6.6c-20.4,0-36.5-16.3-36.8-36.1c0-23,16.4-41.6,37.8-41.6c19.2,0,33.2,15.1,33.2,30.2
		c0,8.5-1.3,12.8-12.8,13c-9.2,0.3-20.4,0.2-39.9,0.3C290.5,84.4,298.7,92.6,309.8,92.6 M290,63c8.5,0,26.6-0.2,33.5-0.7
		c1.1-0.2,2-0.7,2-1.5c0-9-7.6-15.3-15.8-15.3C298.7,45.6,291,54.3,290,63"/>
	<path id="XMLID_27_" class="st0" d="M419.4,40.4c0-4.8,3.1-7.7,7.7-7.7h8.4l0.3-12c0.2-5.6,2.5-10.8,9.7-10.8c5.4,0,7.4,3,7.4,8.2
		c0,3.6-0.3,9.4-0.3,14.5h14.1c4.8-0.2,7.6,2.5,7.6,7.6c0,4.4-2.1,7.7-6.9,7.7h-14.8v28.9c0,9.9,2,15.6,8.7,15.6
		c3.9,0,4.9-1.3,7.6-1.3c4.3,0,6.6,3.9,6.6,7.6c0,3.9-1.3,6.1-3.6,7.4c-3.3,1.8-5.9,2.5-12.3,2.5c-15.6,0-24.3-8.5-24.3-29.4
		c0-10,0.5-21,0.3-31h-9C421.6,47.9,419.4,45,419.4,40.4"/>
	<path class="st0" d="M421.6,79.5l0.2-25l0.2-12.6c0-6.2-2-10-8.5-10c-3.8,0-6.1,2-7.2,5.1c-0.3,1.5-0.7,4.1-1,6.1
		c-4.9-7.4-13.1-11.5-22.3-11.5c-2.1,0-4.2,0.2-6.2,0.5c-1.3,5.5-6,9.8-11.9,10.3c-0.2,0-0.4,0-0.6,0c-0.6,6.3-5.6,11.5-12.2,12
		c-1.1,0.1-2.3,0-3.4-0.2c-2.3,5.3-3.5,11.3-3.5,18c0,20,13.8,36.5,35.6,36.5c10.7,0,19.2-4.6,24.2-13.1c1.1,8.5,2.6,12.7,8,12.7
		c4.8,0,9.4-1.6,9.4-7.6C421.7,93.4,421.6,86.5,421.6,79.5 M382.9,93.1c-11,0-19.7-9-19.7-21.5c0-14.6,8.7-24.6,20.5-24.6
		c10.7,0,20.7,8.1,20.7,23C404.5,83.9,395.1,93.1,382.9,93.1"/>
	<path id="XMLID_24_" class="st0" d="M252.9,123.5c0.7,0,1.1,0.3,1.2,0.9c0.4,2.2,1.4,7.2,1.9,9.8c0.8-2,1.5-4.7,2.7-8.6
		c0.2-0.8,0.7-1.2,1.4-1.2c0.6,0,1.1,0.4,1.2,0.9l2.9,8.7c0.3-1.8,1.3-6.2,1.8-9.1c0.2-1.1,0.5-1.5,1.3-1.5c0.7,0,1.3,0.5,1.2,1.2
		l-2.6,12.1c-0.2,0.8-0.4,1.3-1.4,1.4c-0.9,0-1.2-0.7-1.4-1.3c-1.1-3.3-2.3-6.6-3-8.8c-0.9,2.9-1.8,5.4-2.9,8.8
		c-0.2,0.6-0.7,1.3-1.5,1.3c-1.3-0.1-1.4-1-1.8-2.7c-0.7-3.5-1.5-7.2-2.2-10.8C251.6,124,252.1,123.5,252.9,123.5"/>
	<path class="st0" d="M278.8,136.2c0.8,0,1.5-0.3,2.1-0.6c0.3-0.1,0.5-0.3,0.8-0.3c0.5,0,1,0.5,1,1.1c0,0.4-0.3,0.7-0.6,1
		c-0.8,0.5-1.8,0.9-3.5,0.9c-2.7,0-4.8-2.1-4.8-4.7c0-3,2.1-5.4,4.9-5.4c2.5,0,4.3,2,4.3,3.9c0,1.1-0.2,1.7-1.7,1.7
		c-1.2,0-2.7,0-5.2,0C276.3,135.1,277.3,136.2,278.8,136.2 M276.2,132.4c1.1,0,3.5,0,4.4-0.1c0.2,0,0.3-0.1,0.3-0.2c0-1.2-1-2-2.1-2
		C277.3,130.1,276.3,131.2,276.2,132.4"/>
	<path class="st0" d="M300.3,128.2c0.6,0,0.9,0.2,1,0.8l0.1,1c0.6-1.1,1.9-1.8,3.3-1.8c2.8,0,4.5,2.2,4.5,5c0,2.9-2.1,5.2-5,5.2
		c-1.2,0-2.2-0.5-2.8-1.3c0,0.5,0,1.2,0,2c0,0.7,0,1.7,0,2.8c0,0.8-0.4,1.2-1.3,1.1c-0.7,0-1.1-0.4-1.1-1.1l0-8.4l0-4.1
		C299.2,128.5,299.7,128.2,300.3,128.2 M304.3,130.2c-1.5,0-2.8,1.2-2.8,3.1c0,1.9,1.1,3,2.6,3c1.6,0,2.8-1.3,2.8-3.2
		C306.9,131.4,305.7,130.2,304.3,130.2"/>
	<path id="XMLID_19_" class="st0" d="M317.2,122.7c0.9,0,1.2,0.4,1.2,1.3c-0.1,3.5-0.1,7.2-0.1,10.5c0,0.9,0.1,1.9,0.1,2.7
		c0,0.7-0.3,1-1.1,1.1c-0.8,0.1-1.3-0.4-1.3-1.7c-0.1-2.8,0-9.2,0-12.8C316,123,316.5,122.7,317.2,122.7"/>
	<path class="st0" d="M334.9,134.5c0,0.9,0,1.8,0.1,2.7c0,0.8-0.6,1-1.2,1c-0.7,0-0.9-0.5-1.1-1.7c-0.6,1.1-1.8,1.7-3.2,1.7
		c-2.9,0-4.7-2.1-4.7-4.8c0-3.1,2.1-5.3,4.9-5.3c1.2,0,2.3,0.5,2.9,1.5c0-0.3,0.1-0.6,0.1-0.8c0.2-0.4,0.5-0.7,0.9-0.7
		c0.9,0,1.1,0.5,1.1,1.3l0,1.6L334.9,134.5z M329.9,136.3c1.6,0,2.8-1.2,2.8-3c0-2-1.3-3-2.7-3c-1.5,0-2.7,1.3-2.7,3.2
		C327.3,135.1,328.5,136.3,329.9,136.3"/>
	<path id="XMLID_16_" class="st0" d="M342.1,129.6c0-0.9,0.3-1.4,1.2-1.4c0.7,0,1,0.3,1.1,1.1l0,0.8c0.5-1.2,1.9-1.9,3.2-1.9
		c2.4,0,3.7,1.6,3.7,4.2c0,0.9,0,1.3,0,2.8v1.8c0,0.9-0.5,1.2-1.3,1.2c-0.6,0-1.1-0.3-1.1-1c0-1.2,0.1-2.8,0.1-4.1
		c0-1.5-0.3-2.8-2-2.8c-2.2,0-2.6,1.7-2.6,3.6l0,3.4c0,0.8-0.6,1-1.2,1c-0.7,0-1.2-0.2-1.2-1c0-1.3,0.1-2.6,0-5.7L342.1,129.6z"/>
	<path id="XMLID_15_" class="st0" d="M358.5,138.3c0.3-0.4-0.6-0.6-0.6-1.4c0-0.8,0.6-1.4,1.4-1.4c0.8,0,1.5,0.6,1.5,1.5
		c0,1.5-0.9,2.5-1.8,3.1c-0.1,0.1-0.4,0.2-0.7,0.2c-0.3,0-0.7-0.3-0.7-0.6C357.7,139.2,358.3,138.9,358.5,138.3"/>
	<path id="XMLID_14_" class="st0" d="M383.4,129.2c0.2-0.5,0.5-0.9,1.1-0.9c0.6,0,1.3,0.4,1.3,1c0,0.3-0.1,0.6-0.2,0.9
		c-1.4,3.2-3.3,7.3-4.9,10.5c-0.8,1.5-1.9,2.3-3.2,2.3c-1,0-1.7-0.3-1.7-1.2c0-0.7,0.4-1.1,1.1-1.1c0.9,0,1.2-0.3,1.8-1.3
		c0.3-0.5,0.6-1.1,1-1.8l-0.7-1.4l-2.7-5.8c-0.2-0.5-0.4-0.8-0.4-1.2c0-0.6,0.7-1,1.2-1c0.5,0,0.7,0.2,0.9,0.6
		c1.6,3.9,2.1,5.2,2.7,6.6C381.4,134.5,382.1,132.5,383.4,129.2"/>
	<path class="st0" d="M397.4,128.3c2.7,0.4,4,2.7,4,5c0,2.9-2.2,5.1-5.2,5.1c-2.6,0-4.9-1.9-4.9-4.8c0-3.2,2.1-5.4,5.5-5.4
		C397,128.2,397.2,128.2,397.4,128.3 M396.3,130.2c-1.6,0.1-2.7,1.3-2.7,3.3c0,1.6,1.3,2.7,2.5,2.7c1.5,0,2.9-1.2,2.9-3.1
		C399.1,131.6,398.1,130.3,396.3,130.2"/>
	<path id="XMLID_11_" class="st0" d="M410.3,129.5c0,1.3,0,2.2,0,3.9c0,1.5,0.4,2.9,2,2.9c2,0,2.6-1.5,2.6-3.8v-3
		c0-0.8,0.6-1.2,1.2-1.2c0.7,0,1.2,0.3,1.2,1.1c0,0.3,0,2.8,0,4.9c0,1.5,0.1,2.5,0.1,3c0,0.6-0.5,0.9-1.1,0.9c-0.6,0-1-0.3-1-0.8
		c-0.1-0.4,0-0.7-0.1-1.2c-0.6,1.2-1.7,2.1-3.2,2.1c-2.7,0-3.9-1.9-3.9-4.6c0-1.2,0-3.1,0-4.2c0-0.9,0.5-1.2,1.3-1.2
		C409.9,128.3,410.3,128.7,410.3,129.5"/>
	<path class="st0" d="M438.3,136.2c0.8,0,1.5-0.3,2.1-0.6c0.3-0.1,0.5-0.3,0.8-0.3c0.5,0,1,0.5,1,1.1c0,0.4-0.3,0.7-0.6,1
		c-0.8,0.5-1.8,0.9-3.5,0.9c-2.7,0-4.8-2.1-4.8-4.7c0-3,2.1-5.4,4.9-5.4c2.5,0,4.3,2,4.3,3.9c0,1.1-0.2,1.7-1.7,1.7
		c-1.2,0-2.7,0-5.2,0C435.8,135.1,436.9,136.2,438.3,136.2 M435.7,132.4c1.1,0,3.5,0,4.4-0.1c0.1,0,0.3-0.1,0.3-0.2c0-1.2-1-2-2.1-2
		C436.9,130.1,435.9,131.2,435.7,132.4"/>
	<path class="st0" d="M458.6,134.5c0,0.9,0,1.8,0.1,2.7c0,0.8-0.6,1-1.2,1c-0.7,0-0.9-0.5-1.1-1.7c-0.6,1.1-1.8,1.7-3.2,1.7
		c-2.9,0-4.7-2.1-4.7-4.8c0-3.1,2.1-5.3,4.9-5.3c1.2,0,2.3,0.5,2.9,1.5c0-0.3,0.1-0.6,0.1-0.8c0.1-0.4,0.5-0.7,0.9-0.7
		c0.9,0,1.1,0.5,1.1,1.3l0,1.6L458.6,134.5z M453.6,136.3c1.6,0,2.8-1.2,2.8-3c0-2-1.3-3-2.7-3c-1.5,0-2.7,1.3-2.7,3.2
		C451,135.1,452.1,136.3,453.6,136.3"/>
	<path id="XMLID_6_" class="st0" d="M464.5,129.4c0-0.6,0.4-1,1-1h1.1l0-1.6c0-0.7,0.3-1.4,1.3-1.4c0.7,0,1,0.4,1,1.1
		c0,0.5,0,1.2,0,1.9h1.8c0.6,0,1,0.3,1,1c0,0.6-0.3,1-0.9,1h-1.9v3.8c0,1.3,0.3,2,1.1,2c0.5,0,0.6-0.2,1-0.2c0.6,0,0.9,0.5,0.9,1
		c0,0.5-0.2,0.8-0.5,1c-0.4,0.2-0.8,0.3-1.6,0.3c-2,0-3.2-1.1-3.2-3.8c0-1.3,0.1-2.7,0-4.1h-1.2C464.8,130.4,464.5,130,464.5,129.4"
		/>
	<g>
		<path id="XMLID_5_" class="st0" d="M237,76.7c0.7,0,1.2-0.7,1.2-1.6l0-12.6c0-0.9-0.5-1.6-1.2-1.6c-0.7,0-1.2,0.7-1.2,1.6l0,12.6
			C235.8,76,236.3,76.7,237,76.7z"/>
		<path id="XMLID_4_" class="st0" d="M234.1,31c-10.7,0-20.2,5.1-25.1,13.6l-0.5-7.6c-0.7-4.1-3.5-5.9-7.7-5.9c-5.1,0-8.9,2.3-9,8.2
			l0.2,31.7l-0.2,64.6c0,5.8,2.8,8.5,8,8.5c6.9,0.2,10-2.8,10-8.7c0-8-0.3-15.8-0.3-21.4c0-5.8-0.2-11.8-0.2-15.3
			c4.6,6.4,12.3,10,21.5,10c0.4,0,0.9,0,1.3,0c0-1.6,0-2.7,0-3c0-1.2,2.7-12.3-1.3-16.1c-3.9-3.9-7.7-5.8-7.7-7.2
			c0-1.6-0.2-22.4-0.2-22.4l1.2-1.5l10,0h0.6h10l1.2,1.5c0,0-0.2,20.8-0.2,22.4c0,0.9-4,3.8-7.8,7.3c-3.8,3.4-1.3,14.7-1.3,16.1
			c0,0.3,0,1.2,0,2.6c19-2.8,32.1-19,32.1-39.3C268.9,47.8,255.6,31,234.1,31z"/>
		<path id="XMLID_3_" class="st0" d="M227.2,60.9c-0.7,0-1.2,0.7-1.2,1.6l0,12.6c0,0.9,0.5,1.6,1.2,1.6c0.7,0,1.2-0.7,1.2-1.6
			l0-12.6C228.4,61.6,227.9,60.9,227.2,60.9z"/>
		<path id="XMLID_2_" class="st0" d="M232,60.9c-0.7,0-1.2,0.7-1.2,1.6l0,12.6c0,0.9,0.5,1.6,1.2,1.6s1.2-0.7,1.2-1.6l0-12.6
			C233.2,61.6,232.6,60.9,232,60.9z"/>
		<path id="XMLID_1_" class="st0" d="M242.9,75.1V62.5c0-0.9-0.5-1.6-1.2-1.6c-0.7,0-1.2,0.7-1.2,1.6l0,12.6c0,0.9,0.5,1.6,1.2,1.6
			S242.9,76,242.9,75.1z"/>
	</g>
</g>
<rect id="XMLID_100_" x="600.6" y="18.4" class="st1" width="156" height="137.4"/>
<rect id="XMLID_102_" x="600.6" y="-140.3" class="st2" width="156" height="137.4"/>
</svg>
